<svg id="Layer_1" data-name="Layer 1" xmlns="http://www.w3.org/2000/svg" viewBox="0 0 1182.73 832.93"><defs><style>.cls-1{fill:none;stroke:#000;stroke-linecap:round;stroke-linejoin:round;stroke-width:2px;}</style></defs><path class="cls-1" d="M-464.48,384.26c-1.46-4-2.55-8.19-4.43-12-12.83-25.93-25.82-51.77-38.77-77.64a9.48,9.48,0,0,0-1.66-2.7c-4.83-4.62-4-9.25-.58-14.28,2-2.88,3.18-6.26,5-9.23s4.4-3.17,6.45-.52c3.68,4.75,7,9.78,10.45,14.71a42,42,0,0,1,3.26,4.93c16.06,31.64,38.29,59.26,58,88.49,22.33,33.05,46.26,65,71.26,96a474.53,474.53,0,0,0,98.1,92.11,223.14,223.14,0,0,0,65.16,31.51c14.25,4.18,29.16,7.21,43.61,2.53A131.18,131.18,0,0,0-116.93,583c14.73-9.75,26-23.3,34-39.15,4.87-9.7,7.29-20.28,8.26-31.11.87-9.64,2.09-19.31,2.11-29,0-29.05-4.57-57.43-14.75-84.68-6.4-17.14-13.56-34-20.72-50.85-15.5-36.48-31.95-72.53-50.35-107.64-12.82-24.48-26.05-48.78-40-72.66-12.85-22-27-43.34-40.29-65.14-21.88-35.91-50.15-65.89-83-91.92A110.27,110.27,0,0,0-375.9-12.63c-12.76-1.8-24.16,2.3-35.52,6.72C-431,1.68-449,11.86-464.47,26.29c-5.17,4.84-10.21,9.82-15.32,14.74" transform="translate(1254.32 109.72)"/><path class="cls-1" d="M-744.4,104.43c-9.3,1.09-18.63,1.93-27.88,3.33-19.58,3-37.71,10.25-54.6,20.31-10.09,6-20.1,12.54-28.91,20.25C-876,166-887.54,189-893.63,214.84c-3.09,13.13-4.23,26.68-2.46,39.85,2.43,18,6.56,35.85,10.75,53.58,4.64,19.63,11.77,38.49,20.12,56.86,6.14,13.51,12.45,26.94,18.52,40.48,1,2.17,1.16,4.71,1.7,7.07" transform="translate(1254.32 109.72)"/><path class="cls-1" d="M-249.07,572.28c-6.4,9.83-16.1,15.85-25.73,21.81-25.34,15.67-53.41,23.67-82.53,28.42-13.07,2.13-26.21,3.86-39.36,5.47-13.64,1.67-27.32,3.09-41,4.38-10,.94-20,1.57-30.07,2.21-12.57.8-25.14,1.65-37.72,2.16q-32,1.31-64,2.14c-3.08.08-6.2-1-9.29-1.55" transform="translate(1254.32 109.72)"/><path class="cls-1" d="M-1077.9,489.2c3.28,3.1,6.39,6.4,9.87,9.25,10,8.24,18.69,17.54,22.84,30.14a30.59,30.59,0,0,1,1.11,9.8c-.06,5-2.62,7-6.94,4.75-5.65-2.95-11.49-6.34-15.79-10.91-11.27-12-18.42-26.9-27.22-40.66-4.28-6.69-5.45-12.64-3.68-19.89.21-.86-1.13-2.85-2.09-3.13-4.69-1.34-5.07-5-5.45-8.86-.54-5.46-.92-10.81-3.62-15.95-1.62-3.09-1.36-7.18-1.82-10.83a37,37,0,0,0-5.77-16.57c-2.43-3.67-1.83-9.2-3.65-13.44-6.31-14.68-15.46-27.55-26.09-39.44-4.06-4.53-7.39-9.73-11.6-14.1-4.56-4.72-9.11-10.72-14.86-12.69-6.62-2.28-11.88-6.26-17.89-9.2-8.79-4.3-16.87-2.65-24,3.79-9.25,8.33-14.17,19.32-18.6,30.6a237.31,237.31,0,0,0-14.72,57.39c-1.69,13.45-3.56,26.93-4.27,40.45-1,18.37-1.39,36.8-1,55.19.2,10.77,2.31,21.5,3.64,32.24.84,6.75,1.38,13.58,2.8,20.21,5.1,23.78,10,47.64,25,67.81,7.06,9.49,17.51,13.66,28.46,10.9,1.11-.28,2.65-.37,3.21-1.13,10.19-13.76,19.74-27.87,24.14-44.77,2.85-10.94,6.25-21.77,8.58-32.82,1.54-7.3,1.57-14.91,2.35-22.38,1-10,2.29-20,3.21-30.07.35-3.79.06-7.64.06-11.47,0-10.56.28-21.14-.09-31.69-.29-8.4-2.09-16.78-1.92-25.15.23-11.32-2.18-22.27-3.65-33.31-3.16-23.83-7.82-47.38-19.41-68.94-1.3-2.42-1.54-5.42-2.26-8.15" transform="translate(1254.32 109.72)"/><path class="cls-1" d="M-627.4,532.38c5.65,1.82,11.57,3.07,16.88,5.61,7.19,3.44,15.07,6.7,20.59,12.14,9.91,9.76,21.64,18.59,23.88,34.15a64.67,64.67,0,0,1-4.39,35c-7,16.84-19.35,29-32.87,40.44A343,343,0,0,1-653,694.36c-20.79,12.09-43,19.34-66.25,24.47-17.21,3.81-34.61,3.72-51.95,2.95a75.06,75.06,0,0,1-24.5-5.5c-7.61-3.1-15.43-6.57-21.47-12.79-7.86-8.08-10.24-17.94-8.22-28.42a97.3,97.3,0,0,1,7.85-22.93A94.54,94.54,0,0,1-789.3,617c3.74-2.86,6.49-7,10-10.23a40.91,40.91,0,0,1,7.09-4.92,4.45,4.45,0,0,1,3.22-.54c5.52,1.78,11,3.76,16.43,5.67" transform="translate(1254.32 109.72)"/><path class="cls-1" d="M-1038.54,641.14c2.55,1.1,5.07,3,7.66,3.14,16,.64,32.07,1.23,48.11,1.17,53.21-.19,106.43-.68,159.64-1a45.87,45.87,0,0,1,7.11,1" transform="translate(1254.32 109.72)"/><path class="cls-1" d="M-547.58,206.09c-3.28-5.1-7-10-9.73-15.36-3.46-6.76-8.51-9.59-16-9.28q-42.91,1.8-85.83,3.31c-12,.44-24.06.68-36.09,1.12-18.59.68-37.17,1.49-55.76,2.11-2.18.08-4.38-.67-6.56-1" transform="translate(1254.32 109.72)"/><path class="cls-1" d="M-718.16,560.25c-11.44-19.3-18.75-40.53-28.31-60.72a15.73,15.73,0,0,0-7.77-8.14" transform="translate(1254.32 109.72)"/><path class="cls-1" d="M-778.3,495.21c-8.43,3.05-10.37,2.56-16.35-6.59-14.92-22.85-29.75-45.76-44.18-68.93-2.79-4.48-4.89-6.42-10.58-5.6-8.61,1.26-17.46.92-26.2,1.34q-39.1,1.88-78.19,3.81c-7.83.38-15.67.79-23.5,1.08-11.48.42-23,.64-34.45,1.15-8,.35-16,.9-24,1.7-2.08.21-4,1.72-6,2.63" transform="translate(1254.32 109.72)"/><path class="cls-1" d="M-424.57,382.62a34.29,34.29,0,0,1-6,1.59q-12.29,1-24.6,1.65c-2.53.12-5.13-.68-7.64-.42-4.22.43-8.38,1.48-12.59,2.07a74.61,74.61,0,0,1-8.19.57c-13.67.39-27.34.69-41,1.12-8.38.27-16.76.73-25.15,1.07-17.86.74-35.72,1.38-53.58,2.22-12,.57-24,1.4-36.08,2.19a34.3,34.3,0,0,0-4.92,1.06" transform="translate(1254.32 109.72)"/><path class="cls-1" d="M-397.78,201.17c-5.54-6.56-13.57-9.3-20.84-13-14.71-7.49-29.89-14-46.41-16.47a71.19,71.19,0,0,0-39.34,4.93c-11.26,4.88-22,10.72-31.23,19a109.9,109.9,0,0,0-29.93,43.8,235.88,235.88,0,0,0-8.92,29c-1.34,5.76-1.12,12-.9,18,.2,5.62,4,7.19,9.2,4.41a9.82,9.82,0,0,1,2.71-.58" transform="translate(1254.32 109.72)"/><path class="cls-1" d="M-618.11,168.92c-4.39,4.41-10.19,2.9-15.31,3.14-26.05,1.22-52.12,1.87-78.18,2.92-12,.48-24.08,1.16-36.06,2.32-3,.29-7,2-8.56,4.33-5.45,8.23-8.41,16.51-2.66,26.79,6.94,12.41,12,25.88,17.7,39,.82,1.89.79,4.16,1.15,6.26" transform="translate(1254.32 109.72)"/><path class="cls-1" d="M-781.58-57.9c-2.18,1.46-4.7,2.6-6.51,4.43-18,18.19-34.79,37.41-46.95,60.13a83.39,83.39,0,0,0-6.55,18c-1.4,5.31,3.93,10.88,10.26,11.42a54.88,54.88,0,0,0,30.06-5.46,18,18,0,0,1,11-1.82c4.42.55,8.53.26,11,5.08,1.94,3.79,5.65,1.31,7.44.32a8.39,8.39,0,0,1,7.3-.72c2.89.82,6.16.6,9.24.39,13.61-.91,25.79,2.46,36.69,10.9,5.5,4.26,11.61,7.73,17.44,11.55" transform="translate(1254.32 109.72)"/><path class="cls-1" d="M-744.4,102.79c1.09.73,2.16,2,3.28,2.1,20.33,1,39.3,7.18,58,14.79C-662.07,128.25-645,142.26-629,158c3.76,3.71,7.57,7.38,11.49,10.92,3.36,3,7,1.65,9.66-2.08a210.15,210.15,0,0,1,13.88-17c2-2.3,5.23-3.68,7-6.13,4-5.71,11.69-5.25,16.07-10.22.47-.53,2.57,0,3.7.5A58.19,58.19,0,0,0-541,139c2.15-.08,5.24,1.05,6.41,2.69,7.48,10.44,20.11,9.27,28.53,4.2,9.52-5.75,15-15,18.5-25.12,2.79-8,4.74-16.47,2.78-25.08-1-4.47-3-8.72-4.25-13.14-1.11-3.82-.06-7.06,3.8-8.71,9.16-3.93,11.28-14,8.75-24.08C-479.31,38.6-491,30-500,31.07c-6,.72-12.86,5.46-13.51,11.62-.53,5,.22,10.18.4,15.28" transform="translate(1254.32 109.72)"/><path class="cls-1" d="M-676.06-72.11c-2.08-7.54-4.31-15.19-9.38-21.24-11.35-13.55-25.85-18.18-43.11-13.74-19.53,5-35.63,14.91-45.81,32.86-1.18,2.09-.84,5-1.2,7.59" transform="translate(1254.32 109.72)"/><path class="cls-1" d="M-518.6,21.9c-3.47-8.42-11.12-12.09-18.65-15.18C-561-3-582.43,2.44-601.63,18.16c-8.55,7-13.37,16.77-16.36,27.28-.65,2.31.25,5.06.43,7.61" transform="translate(1254.32 109.72)"/><path class="cls-1" d="M-1097,470.62c2.56-2.19,5.91-3.9,7.52-6.64,6.6-11.28,13.67-22.42,16.48-35.46a26.41,26.41,0,0,0,.51-8.72c-.74-5.63-6.5-7-11.24-2.05a31.4,31.4,0,0,0-7.58,12.49c-2.41,8.52-3.45,17.43-5.16,26.16-.79,4-1.8,8-2.71,12" transform="translate(1254.32 109.72)"/><path class="cls-1" d="M-583.66,559.16c-.92.36-1.89,1.16-2.73,1-13.34-2.06-25.71,2.45-38.28,5.54-24.13,5.92-46.81,15.76-68.79,27a406.27,406.27,0,0,0-63.4,40.4c-15.79,12.14-30.47,25.69-41.67,42.48-5.43,8.15-9.12,16.63-6.67,26.81.57,2.37-.25,5.08-.43,7.63" transform="translate(1254.32 109.72)"/><path class="cls-1" d="M-1021.59,595.78c1.64-2.92,4.35-5.69,4.75-8.77,2.62-20.32,6.69-40.57,5.53-61.18-.69-12.24-2.24-24.45-3.88-36.61-.34-2.52-2.75-4.75-4.21-7.12" transform="translate(1254.32 109.72)"/><path class="cls-1" d="M-697.93,344.91c6.2,13.85,12.11,27.83,18.71,41.48,3.46,7.17,12.42,10.37,20.12,8.89a46.33,46.33,0,0,1,10.92-.5c1.13.06,2.51,1.49,3.23,2.63,5.38,8.51,10.5,17.17,16,25.63,3.53,5.48,3,8.61-2.77,12.06-.78.47-1.46,1.09-2.19,1.63" transform="translate(1254.32 109.72)"/><path class="cls-1" d="M-666.22,443.29c-7.31-4.3-14.39-.57-20.68,1.88-20.84,8.11-41.29,17.22-61.87,26-7.64,3.27-10.92,9.65-12,17.48" transform="translate(1254.32 109.72)"/><path class="cls-1" d="M-505.48,273.86c3.09,5.1,6.55,10,9.23,15.34,11.26,22.33,22.3,44.78,33.4,67.19q1.47,3,2.74,6c2.66,6.37,2.31,12.3-2.73,17.48" transform="translate(1254.32 109.72)"/><path class="cls-1" d="M-1097.58,488.11c-.91,2.91-2.46,5.8-2.61,8.75-.38,7.27.25,14.59-.22,21.85a259.42,259.42,0,0,1-3.08,29.49c-1.73,9.64-1.76,18.84,2.09,27.9a37,37,0,0,1,3.27,17.49" transform="translate(1254.32 109.72)"/><path class="cls-1" d="M-777.75,36.11c-2.37,12,1,18.38,12.53,25.21a51.53,51.53,0,0,0,29,7.49C-725,68.34-714,66-704.13,60.89c4.21-2.18,9.08-3,12.54-5.41,5.36-3.81,12.5-6.13,15-13.35,1.51-4.36,4.76-7.28,7.94-10.61,7.53-7.87,11.73-17.75,13.49-28.73,1-6,2.06-11.49-3.42-15.87" transform="translate(1254.32 109.72)"/><path class="cls-1" d="M-725.81,548.23c-4.82,1.28-8.27-1.61-12.05-3.78-7.24-4.16-14.72-7.61-23.49-6.08a14.77,14.77,0,0,0-10.4,7.12c-2.51,4-.83,8.87,4.4,12a33.66,33.66,0,0,0,17.48,4.94c5.29,0,10.58-.14,15.86,0,3.83.13,7.65.68,11.48,1" transform="translate(1254.32 109.72)"/><path class="cls-1" d="M-333.27,259.1c-2.55-1.45-5.59-2.43-7.57-4.45-14-14.24-27.69-28.79-41.69-43-4.17-4.25-9-7.84-13.43-11.65-7.13,11.87-13.18,23.35-20.53,33.92-16.23,23.37-34.85,44.55-59.48,59.65-1,.63-2.18,1.1-3.27,1.65" transform="translate(1254.32 109.72)"/><path class="cls-1" d="M-515.32,47.59a105.09,105.09,0,0,0-51.94,5.46c-4.56,1.65-9.17,3.14-13.66,5a43.49,43.49,0,0,0-21.24,18.61,18.14,18.14,0,0,1-8.84,7.6c-5.24,2.28-7.77,1.19-9.83-4.38-1.15-3.08-2.37-6.14-3.26-9.3C-625.74,64.66-621,56-615.41,53c7.79-4.12,15.28-8.81,23-13,15.38-8.39,32.16-12.61,49.21-15.76,5-.92,10.19-.41,15.29-.73.76,0,1.46-1,2.19-1.57" transform="translate(1254.32 109.72)"/><path class="cls-1" d="M-1155.54,540c-11.66,1.09-23.32,2.23-35,3.27-9.1.8-18.22,1.43-27.33,2.21-10.21.87-20.41,1.81-30.62,2.72" transform="translate(1254.32 109.72)"/><path class="cls-1" d="M-208.61,402.3c-13.67-16-27.39-32-41-48.12-3.6-4.27-8.88-7.56-8.88-14.19,0-.73-1.37-1.45-2.09-2.18-14.4-14.76-29-29.34-43.12-44.34-8.76-9.3-16.81-19.27-25.24-28.88-2.37-2.71-3.9-5.37-3.45-9.33.28-2.44-.81-5.34-2.07-7.59-12.78-22.94-22.84-47.11-32.77-71.35-.82-2-.74-5.13-4.34-4.66" transform="translate(1254.32 109.72)"/><path class="cls-1" d="M-635.6,522.54c-9,3-17.1,7.52-23.54,14.73-4.35,4.88-10.38,6.82-16.37,8.79-8,2.66-16.12,5.24-24,8.26-4.67,1.78-8.82,4.39-14.23,4.6-3,.12-7.14,2.69-8.46,5.31-2,4-5.64,5.08-8.41,7.61-5.63,5.14-13.42,7.16-18.55,12.59-6.09,6.43-15.9,8-20.36,16.27" transform="translate(1254.32 109.72)"/><path class="cls-1" d="M-657.47,447.66c-4.42,8.84-4,17.43.47,26.28,6.85,13.52,13.46,27.17,19.63,41,2.66,6,4.33,12.34,9,16.51-3.21,8.28-6.73,16.23-9.29,24.49-1.2,3.87-.53,8.32-.72,12.51" transform="translate(1254.32 109.72)"/><path class="cls-1" d="M-681.53-63.91c-.91-.18-1.81-.44-2.73-.53-6.37-.65-11.49-3.66-16.47-7.58-8.59-6.77-18.73-7.77-29.45-8-13.32-.24-24.58,4-35,11.64-.92.67-2.5.51-3.78.59-4.71.32-11.83,5.89-12,9.86a79.61,79.61,0,0,0,.55,13.1c1,7.87,1.27,16,5.93,23,1.37,2,0,2.54-1.51,4-9.1,8.41-17.65,17.39-22,29.39-1.91,5.34-2.07,10.74,1.05,15.84" transform="translate(1254.32 109.72)"/><path class="cls-1" d="M-681,510.52c-.73-.37-2-.6-2.11-1.12-2.79-10.85-11.36-14.25-20.85-8.17-10.95,7-14.68,18-16.45,30-.71,4.86.29,10.23-3.78,14.22" transform="translate(1254.32 109.72)"/><path class="cls-1" d="M-1069.15,601.79c-4.55-5-10.09-7.16-17-6.67-3.78.27-7.68-1.07-11.46-.81-2.25.16-4.61,1.72-6.52,3.18a94.72,94.72,0,0,0-7.7,7c-14.46,13.69-30.16,25.76-48.2,34.26-7.54,3.56-15.92,5.4-24,7.69-1.38.38-3.25-1-4.89-1.51" transform="translate(1254.32 109.72)"/><path class="cls-1" d="M-488.53,89.13c-1.1,2.18-2.56,4.26-3.23,6.57-5.23,18.16-13.62,33.65-32.85,40.46-3.53,1.25-6.93,2.89-10.4,4.34" transform="translate(1254.32 109.72)"/><path class="cls-1" d="M-694.1,5.5c7.65-3.64,15.37-7.16,22.88-11.08,1-.5,1.68-3.7,1-4.67-4.31-6.49-2.66-13.94-3.51-20.89-1.21-9.87-2.58-19.61-6.17-28.95-1.76-4.59,1.35-11.37,6-12.49a172.13,172.13,0,0,1,19.68-3.81,21.25,21.25,0,0,1,23.95,19,22.88,22.88,0,0,0,4.8,12.17c4.88,6.54,8,14,5.76,22.82C-621.52-15.1-627.41-11.73-633-9c-6.1,3-12.85,5.57-20.11,4.63" transform="translate(1254.32 109.72)"/><path class="cls-1" d="M-533.37,228.5c-3.82,5.64-8.51,10.9-11.3,17-6.38,14-12.57,28.11-17.26,42.68-1.54,4.81,1.11,11.42,3.12,16.72,1.19,3.13,5.23,3.27,7.9.59,3.83-3.82,7.34-8,11-12" transform="translate(1254.32 109.72)"/><path class="cls-1" d="M-747.68,301.74c-3.08,9.75,1.14,18.45,10.92,23,12.36,5.72,24.34,3.21,36.06-1.75,5.15-2.19,9.93-5.28,14.78-8.14,2.69-1.59,5-8.63,3.85-10.9-1.82-3.59-8.1-5.53-12-3.84-14.69,6.32-29.64,8.89-45.39,3.9-10-3.17-16.67-9.36-18.38-19.77-.5-3.07,1.27-6.52,2-9.8" transform="translate(1254.32 109.72)"/><path class="cls-1" d="M-749.32,232.32c-10.3,7.12-15,20.06-11.46,31.7,2.6,8.45,9.4,12.81,17,15.76,11.79,4.59,24,6.14,36.6,3.38,1.25-.27,2.55-.39,3.82-.55,3.91-.5,8.45-4.33,8.63-8.21s-1.9-6.53-5.88-7.68c-8.42-2.44-16.76-5.12-25.17-7.58-2.12-.62-4.44-.53-6.54-1.18-4.78-1.48-9.49-3.23-14.23-4.87" transform="translate(1254.32 109.72)"/><path class="cls-1" d="M-695.2-66.09c-6.19,3.09-12.4,6.17-18.58,9.29-10.87,5.49-22.21,10.15-31.71,18-.59.49-1.1,1.09-1.64,1.63" transform="translate(1254.32 109.72)"/><path class="cls-1" d="M-513.14,288.62q-3.27,6.28-6.56,12.57-2.71,5.19-5.47,10.38c-1.51,2.86-4.09,4.89-7,3.62a9.65,9.65,0,0,1-4.83-5.85c-1.24-5.24-.83-10.73-2-16.16-.75-3.48,2.11-7.77,3.46-11.66,4.77-13.84,10.65-27.12,19.67-38.81" transform="translate(1254.32 109.72)"/><path class="cls-1" d="M-204.79,373.33c-13-11.73-27.52-21.34-42.7-30-3.08-1.76-6.87-2.28-10.33-3.38" transform="translate(1254.32 109.72)"/><path class="cls-1" d="M-1122.19,612.18c-2-5.83-3.34-12-6.14-17.42a65,65,0,0,0-28.3-28.49" transform="translate(1254.32 109.72)"/><path class="cls-1" d="M-682.89,511.06c-1.11,8.66-6.38,15-11.77,21.31-5.05,5.88-10.4,11.51-15.19,17.58-1.75,2.22-2.29,5.38-3.39,8.12" transform="translate(1254.32 109.72)"/><path class="cls-1" d="M-539.38,196.25c-2.73-5.1-5.53-10.17-8.19-15.31-4.91-9.51-12.3-13.07-23-12.12-11.08,1-22.22,1.24-33.35,1.69-1.44.05-2.91-.68-4.37-1" transform="translate(1254.32 109.72)"/><path class="cls-1" d="M-699.57-14.17C-695.7-2.08-694.94,10.56-693,23c1.19,7.51,2.76,15,4.4,22.4.39,1.75,1.75,3.29,2.66,4.93" transform="translate(1254.32 109.72)"/><path class="cls-1" d="M-1117.81,417.06c-1.28,1.64-2.85,3.12-3.78,4.94-6.42,12.56-16.87,18.9-30.67,20.2" transform="translate(1254.32 109.72)"/><path class="cls-1" d="M-734,1.68c6.64,9.71,16.66,10.9,30.07,8.2l8.2-1.64" transform="translate(1254.32 109.72)"/><path class="cls-1" d="M-670.59-4.88c0,6.74.31,13.5-.12,20.21-.25,3.87-2,7.63-2.5,11.51-.28,2.1.61,4.35,1,6.54" transform="translate(1254.32 109.72)"/><path class="cls-1" d="M-727.45,328.52c-1.47,7.79,3.61,14.52,12,15.84,11.85,1.85,22.33-1.18,31.11-9.33a49.78,49.78,0,0,0,8.67-9.87c3.35-5.43,2.29-7.69-3.7-10.85-1.08-.57-2.19-1.1-3.28-1.64" transform="translate(1254.32 109.72)"/><path class="cls-1" d="M-629-47c-4.65,12.2-14.2,20.19-24.08,27.85-4.15,3.22-7.43,7.8-13.1,8.77-.91.15-1.82.36-2.73.54" transform="translate(1254.32 109.72)"/><path class="cls-1" d="M-766.27-66.64A45.78,45.78,0,0,1-768-60.1c-3.57,8.62-1.81,13.62,6.59,18.64,2.68,1.6,5.12,3.6,7.67,5.43" transform="translate(1254.32 109.72)"/><path class="cls-1" d="M-1075.17,484.83c-1.82,4.37-5.43,4.19-9.3,3.88-3.26-.26-6.55,0-9.83,0" transform="translate(1254.32 109.72)"/><path class="cls-1" d="M-595.69,112.08c-6.76,5.92-5.87,15.43,2.22,21.26,3.23,2.33,6.89,4.07,10.35,6.07" transform="translate(1254.32 109.72)"/><path class="cls-1" d="M-673.33-15.26c-10.2,0-20.41-.05-30.61,0-7.06,0-12.7,4.07-18.54,7.2A133.35,133.35,0,0,0-739.39,2.89c-2.51,1.87-3.82,5.28-6.16,7.47C-751.58,16-758,21.26-764,26.88c-1.5,1.39-2.25,3.58-3.34,5.41" transform="translate(1254.32 109.72)"/><path class="cls-1" d="M-787.59,616.55c4.55,1.46,9.16,2.78,13.65,4.4,6.61,2.39,12.66,5.66,16.42,12" transform="translate(1254.32 109.72)"/><path class="cls-1" d="M-773.92-18c5.32,7.69,7.51,15.91,4.73,25.17-.5,1.65.1,3.62.19,5.44" transform="translate(1254.32 109.72)"/><path class="cls-1" d="M-606.63,83.11c2.74,7.11,4.91,14.5,8.34,21.25,5.13,10.13,13.21,17.91,22.25,24.7a41.9,41.9,0,0,1,4.4,4.34" transform="translate(1254.32 109.72)"/><path class="cls-1" d="M-742.76,4.41c-3.1.37-6.41.16-9.25,1.21-5.8,2.16-11.35,5-17,7.56a3.72,3.72,0,0,0-1.1,1.07L-782.67,29" transform="translate(1254.32 109.72)"/><path class="cls-1" d="M-710.5-40.95c-.73,0-1.77-.32-2.15,0-8.73,8.35-17.88,16.5-20.69,28.95-.69,3.09.24,6.53.42,9.81" transform="translate(1254.32 109.72)"/><path class="cls-1" d="M-665.13,72.73c0-1.27.44-2.77-.07-3.79-3.14-6.27-6.46-12.44-9.8-18.6a11.17,11.17,0,0,0-2.15-2.2" transform="translate(1254.32 109.72)"/><path class="cls-1" d="M-688.09,55.24c3.1,3.64,6.07,7.4,9.33,10.9,3.53,3.79,7.72,6,13,7.48,5.54,1.56,10.34,5.8,15.36,9,.54.35.41,1.75.59,2.66" transform="translate(1254.32 109.72)"/><path class="cls-1" d="M-574.92,94.05c2.74,6,5.3,12.11,8.25,18,2.75,5.47,4.81,5.68,10.34,1.66" transform="translate(1254.32 109.72)"/><path class="cls-1" d="M-1103.6,466.79c-2.73,2.37-5.78,4.46-8.12,7.17-3.4,3.94-6.27,8.32-9.37,12.51" transform="translate(1254.32 109.72)"/><path class="cls-1" d="M-1110.16,443.84c-3.64,4.74-7.27,9.49-10.94,14.2-1.59,2-3.27,4-4.91,6" transform="translate(1254.32 109.72)"/><path class="cls-1" d="M-773.38-20.73c6.38-4.74,12.66-9.62,19.21-14.11,1.74-1.2,5.11-2.38,6.35-1.54,6.56,4.45,14.4,4.41,21.46,6.91" transform="translate(1254.32 109.72)"/><path class="cls-1" d="M-697.38,281.51a26.89,26.89,0,0,0,2.74,2.17c8,4.87,8.23,5.54,4.91,14.23" transform="translate(1254.32 109.72)"/><path class="cls-1" d="M-753.7,590.31l17,4.38" transform="translate(1254.32 109.72)"/><path class="cls-1" d="M-735.65,577.74c5.19,3.92,11.83,2.68,17.49,4.92" transform="translate(1254.32 109.72)"/><path class="cls-1" d="M-545.39,74.92c-5.44.08-10.63.92-14.77,4.92" transform="translate(1254.32 109.72)"/><path class="cls-1" d="M-538.29,115.91c-3,4.86-5.58,10.13-12.57,9.84" transform="translate(1254.32 109.72)"/><path class="cls-1" d="M-525.71,23.54c.73.18,1.6.72,2.16.49,8.57-3.54,13.2,1.69,17.52,7.71" transform="translate(1254.32 109.72)"/><path class="cls-1" d="M-500.56,46q3.27,9.28,6.56,18.58" transform="translate(1254.32 109.72)"/></svg>
