<?xml version="1.0" encoding="UTF-8"?> <svg xmlns="http://www.w3.org/2000/svg" width="146" height="35" viewBox="0 0 146 35" fill="none"><g clip-path="url(#clip0_4019_34073)"><path d="M3.35689 0.22998C1.50603 0.22998 0 1.73601 0 3.58687V31.4061C0 33.264 1.50603 34.763 3.35689 34.763H31.1761C33.034 34.763 34.533 33.257 34.533 31.4061V3.58687C34.533 1.72897 33.027 0.22998 31.1761 0.22998H3.35689ZM4.03953 32.6447C2.97686 32.6447 2.11829 31.7861 2.11829 30.7235V4.26951C2.11829 3.20684 2.97686 2.34827 4.03953 2.34827H30.4935C31.5562 2.34827 32.4147 3.20684 32.4147 4.26951V30.7305C32.4147 31.7932 31.5562 32.6517 30.4935 32.6517H4.03953V32.6447Z" fill="white"></path><path fill-rule="evenodd" clip-rule="evenodd" d="M5.27808 6.70449C5.27808 6.04297 5.81293 5.50812 6.47445 5.50812H28.0585C28.72 5.50812 29.2548 6.04297 29.2548 6.70449V10.5399C29.2548 11.2015 28.72 11.7363 28.0585 11.7363H12.1115C11.7807 11.7363 11.5133 12.0037 11.5133 12.3345V22.6444C11.5133 22.9752 11.7807 23.2426 12.1115 23.2426H19.4305C20.092 23.2426 20.6269 23.7775 20.6269 24.439V28.2744C20.6269 28.936 20.092 29.4708 19.4305 29.4708H6.47445C5.81293 29.4708 5.27808 28.936 5.27808 28.2744V6.70449ZM23.0267 14.6217H15.588C14.9265 14.6217 14.3916 15.1565 14.3916 15.8181V19.6535C14.3916 20.315 14.9265 20.8499 15.588 20.8499H22.4214C22.7522 20.8499 23.0196 21.1173 23.0196 21.4481V28.2815C23.0196 28.943 23.5545 29.4778 24.216 29.4778H28.0514C28.713 29.4778 29.2478 28.943 29.2478 28.2815V15.811C29.2478 15.1495 28.713 14.6146 28.0514 14.6146H23.0126L23.0267 14.6217Z" fill="white"></path><path fill-rule="evenodd" clip-rule="evenodd" d="M49.34 5.40253C48.6362 5.40253 48.0732 5.97256 48.0732 6.66928V10.3429C48.0732 11.0396 48.6432 11.6096 49.34 11.6096H56.6519C56.9123 11.6096 57.1305 11.8207 57.1305 12.0882V28.4574C57.1305 29.1541 57.7005 29.7241 58.3972 29.7241H62.0708C62.7675 29.7241 63.3375 29.1541 63.3375 28.4574V12.0882C63.3375 11.8278 63.5487 11.6096 63.8161 11.6096H71.3814C72.0852 11.6096 72.6482 11.0396 72.6482 10.3429V6.66928C72.6482 5.97256 72.0781 5.40253 71.3814 5.40253H49.34ZM95.4426 5.40253C96.1393 5.40253 96.7094 5.97256 96.7094 6.66928V10.3429C96.7094 11.0396 96.1393 11.6096 95.4426 11.6096H81.6632C81.4028 11.6096 81.1847 11.8207 81.1847 12.0882V14.2416C81.1847 14.502 81.3958 14.7202 81.6632 14.7202H92.3391C93.0358 14.7202 93.6058 15.2902 93.6058 15.9869V18.626C93.6058 19.3227 93.0358 19.8927 92.3391 19.8927H81.6632C81.4028 19.8927 81.1847 20.1039 81.1847 20.3713V23.0455C81.1847 23.3059 81.3958 23.5171 81.6632 23.5171H95.4426C96.1393 23.5171 96.7094 24.0871 96.7094 24.7838V28.4574C96.7094 29.1541 96.1393 29.7241 95.4426 29.7241H76.5047C75.808 29.7241 75.238 29.1541 75.238 28.4574V6.66928C75.238 5.97256 75.808 5.40253 76.5047 5.40253H95.4426ZM120.025 5.40253C120.721 5.40253 121.291 5.97256 121.291 6.66928V10.3429C121.291 11.0396 120.721 11.6096 120.025 11.6096H106.245C105.985 11.6096 105.774 11.8207 105.774 12.0882V23.0385C105.774 23.2989 105.985 23.51 106.245 23.51H120.025C120.721 23.51 121.291 24.0801 121.291 24.7768V28.4503C121.291 29.1471 120.721 29.7171 120.025 29.7171H101.087C100.39 29.7171 99.82 29.1471 99.82 28.4503V6.66928C99.82 5.97256 100.39 5.40253 101.087 5.40253H120.025ZM46.525 15.9869C46.525 15.2902 45.9549 14.7202 45.2582 14.7202H38.7415C38.0448 14.7202 37.4747 15.2902 37.4747 15.9869V18.626C37.4747 19.3227 38.0448 19.8927 38.7415 19.8927H45.2582C45.9549 19.8927 46.525 19.3227 46.525 18.626V15.9869Z" fill="white"></path><path d="M128.976 5.40956H125.816C124.993 5.40956 124.324 6.07813 124.324 6.90151V28.2463C124.324 29.0696 124.993 29.7382 125.816 29.7382H128.976C129.799 29.7382 130.468 29.0696 130.468 28.2463V20.8006C130.468 20.695 130.552 20.6106 130.658 20.6106H139.793C139.898 20.6106 139.983 20.695 139.983 20.8006V28.2463C139.983 29.0696 140.651 29.7382 141.475 29.7382H144.515C145.338 29.7382 146 29.0696 146 28.2463V6.89448C146 6.07109 145.331 5.40253 144.515 5.40253H141.475C140.651 5.40253 139.983 6.07109 139.983 6.89448V14.3683C139.983 14.4739 139.898 14.5583 139.793 14.5583H130.658C130.552 14.5583 130.468 14.4739 130.468 14.3683V6.89448C130.468 6.07109 129.799 5.40253 128.976 5.40253" fill="white"></path></g><defs><clipPath id="clip0_4019_34073"><rect width="146" height="34.5401" fill="white" transform="translate(0 0.22998)"></rect></clipPath></defs></svg>
